<?xml version="1.0" encoding="UTF-8"?>
<svg width="450px" height="192px" viewBox="0 0 450 192" version="1.1" xmlns="http://www.w3.org/2000/svg" xmlns:xlink="http://www.w3.org/1999/xlink">
    <!-- Generator: Sketch 55.2 (78181) - https://sketchapp.com -->
    <title>Group 2</title>
    <desc>Created with Sketch.</desc>
    <g id="Page-1" stroke="none" stroke-width="1" fill="none" fill-rule="evenodd">
        <g id="Group-2" transform="translate(0.000000, -23.000000)">
            <rect id="Rectangle" stroke="#000000" stroke-width="7" fill="#FFFFFF" x="3.5" y="207.5" width="443" height="4" rx="2"></rect>
            <g id="Group" transform="translate(66.000000, 0.000000)">
                <path d="M211.322795,166.62866 L192.168428,184.802144 L173.309965,176.997115 L172.686272,151.474575 C170.927757,149.948784 169.256091,148.325896 167.679659,146.614278 L142.739958,146.009529 L134.753237,126.792439 L151.48047,109.298399 C151.368231,107.775737 151.311119,106.237784 151.311119,104.68652 C151.311119,103.506889 151.344144,102.334954 151.409322,101.171588 L134.947676,83.9553088 L143.001091,64.5285346 L166.605023,63.9561765 C168.498691,61.7906125 170.540799,59.7576572 172.715516,57.8731075 L173.291486,34.3034652 L192.732703,26.2776307 L210.141098,42.794553 C211.226036,42.7382836 212.318341,42.7097991 213.417314,42.7097991 C215.008096,42.7097991 216.58491,42.7694829 218.145629,42.8867289 L235.809642,26.1272782 L255.087564,34.1059105 L255.703077,59.2937075 C257.279217,60.7565098 258.779067,62.3000722 260.196014,63.9177951 L285.988189,64.5432147 L293.868189,83.5035187 L275.696872,102.507842 C275.625606,102.582375 275.557776,102.658974 275.49338,102.737441 C275.513416,103.384684 275.523508,104.034426 275.523508,104.68652 C275.523508,105.714294 275.498439,106.736225 275.448876,107.751737 C275.526317,107.849573 275.608982,107.944635 275.696872,108.036554 L294.159329,127.345364 L286.429957,145.990469 L259.622245,146.640514 C259.440086,146.644931 259.260961,146.661492 259.085648,146.689418 C258.021767,147.840741 256.914722,148.951739 255.767074,150.019854 C255.740525,150.190432 255.72473,150.364592 255.720404,150.54162 L255.064676,177.375083 L236.475717,185.049084 L216.991186,166.562343 C215.808446,166.629306 214.616851,166.663242 213.417314,166.663242 C212.716375,166.663242 212.018148,166.651654 211.322815,166.62866 L211.322795,166.62866 Z M213.417314,132.857757 C229.008361,132.857757 241.647402,120.245065 241.647402,104.68652 C241.647402,89.1279758 229.008361,76.5152834 213.417314,76.5152834 C197.826266,76.5152834 185.187225,89.1279758 185.187225,104.68652 C185.187225,120.245065 197.826266,132.857757 213.417314,132.857757 Z" id="Combined-Shape" fill="#000000" transform="translate(214.456283, 105.588181) rotate(23.000000) translate(-214.456283, -105.588181) "></path>
                <path d="M69.9740842,141.026465 L1.23107053,112.396708 C0.485616339,112.086245 -4.32430854e-15,111.357949 0,110.550429 L0,97.8795846 C3.11084372e-15,97.072708 0.48485229,96.3448608 1.22943734,96.0339863 L69.972451,67.3328336 C70.9917469,66.9072636 72.163042,67.3885735 72.588612,68.4078693 C72.6905335,68.6519846 72.7430137,68.9138942 72.7430137,69.178432 L72.7430137,84.7698077 C72.7430137,85.5863573 72.2466235,86.3209076 71.4890011,86.6254754 L32.4525631,102.318311 C31.4277061,102.730309 30.9308853,103.895109 31.3428827,104.919966 C31.5465227,105.426527 31.9483971,105.82782 32.4552525,106.030726 L71.4863117,121.655748 C72.2453555,121.95961 72.7430137,122.694888 72.7430137,123.512494 L72.7430137,139.180185 C72.7430137,140.284755 71.8475832,141.180185 70.7430137,141.180185 C70.4790715,141.180185 70.2177397,141.127941 69.9740842,141.026465 Z M138,42 L102.11863,167.549585 C101.873266,168.408117 101.088529,169 100.195623,169 L81.2217006,169 C80.1171311,169 79.2217006,168.104569 79.2217006,167 C79.2217006,166.813012 79.2479235,166.626947 79.2996032,166.447242 L114.67202,43.447242 C114.918463,42.5902919 115.702436,42 116.594118,42 L138,42 Z" id="&lt;/" fill="#0A0A0A" fill-rule="nonzero"></path>
            </g>
        </g>
    </g>
</svg>