<?xml version="1.0" encoding="UTF-8"?>
<svg width="347px" height="475px" viewBox="0 0 347 475" version="1.1" xmlns="http://www.w3.org/2000/svg" xmlns:xlink="http://www.w3.org/1999/xlink">
    <!-- Generator: Sketch 55.2 (78181) - https://sketchapp.com -->
    <title>Group 2</title>
    <desc>Created with Sketch.</desc>
    <g id="Page-1" stroke="none" stroke-width="1" fill="none" fill-rule="evenodd">
        <g id="Group-2">
            <g id="Group-5" fill="#FFFFFF" stroke="#000000">
                <path d="M30,3.5 C15.3644541,3.5 3.5,15.3644541 3.5,30 L3.5,444.337117 C3.5,458.972663 15.3644541,470.837117 30,470.837117 L317,470.837117 C331.635546,470.837117 343.5,458.972663 343.5,444.337117 L343.5,118.377737 C343.5,115.346625 342.303307,112.438083 340.170168,110.284631 L237.767502,6.90689429 C235.607785,4.72661293 232.666211,3.5 229.597334,3.5 L30,3.5 Z" id="Rectangle" stroke-width="7"></path>
                <path d="M233,5 L342.001611,114.266757 L263,114.266757 C246.431458,114.266757 233,100.835299 233,84.2667565 L233,5 Z" id="Triangle" stroke-width="8" stroke-linejoin="round"></path>
            </g>
            <g id="Group" transform="translate(25.000000, 227.000000)">
                <path d="M196.75276,156.900624 C196.715164,156.934306 196.678051,156.968823 196.641443,157.004174 L178.915433,174.122032 L161.357554,166.725838 L160.776874,142.540193 C159.139635,141.094324 157.583257,139.556445 156.115545,137.934482 L132.895823,137.361411 L125.45991,119.150931 L141.033541,102.573245 C140.929042,101.130341 140.875869,99.6729481 140.875869,98.2029407 C140.875869,97.0850992 140.906617,95.9745518 140.9673,94.8721235 L125.640939,78.5576498 L133.138947,60.1484685 L155.115022,59.6060911 C156.878092,57.5539614 158.779364,55.6274942 160.804101,53.841659 L161.340349,31.506617 L179.440792,23.9011834 L195.648609,39.5529336 C196.658723,39.4996116 197.675697,39.4726192 198.698878,39.4726192 C200.179952,39.4726192 201.64802,39.5291766 203.101102,39.6402812 L219.546908,23.7587065 L237.495318,31.3194104 L238.068382,55.1878466 C239.535822,56.5740259 240.932235,58.0367351 242.251461,59.5697201 L266.264866,60.1623796 L273.601417,78.1295249 L256.795281,96.0191771 C256.686911,96.1345338 256.586662,96.2547147 256.494533,96.3789967 C256.512725,96.9847151 256.521887,97.5927411 256.521887,98.2029407 C256.521887,99.1678247 256.498978,100.127274 256.453683,101.080758 C256.556813,101.225056 256.67068,101.364068 256.795281,101.496703 L273.872479,119.674892 L266.676167,137.343349 L241.97988,137.952863 C241.703001,137.959696 241.433144,137.994583 241.173041,138.054791 C240.207275,139.116141 239.203431,140.141217 238.163713,141.12778 C238.114359,141.363413 238.085701,141.606694 238.079724,141.855635 L237.474009,167.084008 L220.167047,174.356037 L202.198718,157.004174 C202.139151,156.94665 202.078244,156.891337 202.016099,156.838234 C200.918267,156.901302 199.812248,156.933262 198.698878,156.933262 C198.047601,156.933262 197.398839,156.922326 196.75276,156.900624 Z M198.698878,124.898541 C213.214681,124.898541 224.982064,112.946514 224.982064,98.2029407 C224.982064,83.4593676 213.214681,71.50734 198.698878,71.50734 C184.183076,71.50734 172.415692,83.4593676 172.415692,98.2029407 C172.415692,112.946514 184.183076,124.898541 198.698878,124.898541 Z" id="Combined-Shape" fill="#000000" transform="translate(199.666194, 99.057371) rotate(23.000000) translate(-199.666194, -99.057371) "></path>
                <path d="M64.6906481,132.478008 L1.21886733,105.549245 C0.479916674,105.235735 4.5391952e-15,104.510801 0,103.708095 L0,91.8634894 C7.8995512e-16,91.0614353 0.479147725,90.3369577 1.21721745,90.0230407 L64.6889983,63.027123 C65.70545,62.5948041 66.8799107,63.0683374 67.3122295,64.0847891 C67.4175147,64.3323316 67.4717808,64.5985694 67.4717808,64.8675717 L67.4717808,79.3473043 C67.4717808,80.1591494 66.981018,80.890449 66.2297309,81.1981181 L30.3393307,95.8960485 C29.3171545,96.3146528 28.8278628,97.4826362 29.246467,98.5048124 C29.4499815,99.0017677 29.8447955,99.3960024 30.342049,99.598787 L66.2270126,114.233003 C66.9797411,114.539972 67.4717808,115.272013 67.4717808,116.084927 L67.4717808,130.636859 C67.4717808,131.741428 66.5763503,132.636859 65.4717808,132.636859 C65.2033822,132.636859 64.9377292,132.582836 64.6906481,132.478008 Z M128,39 L94.7437797,157.540238 C94.5016157,158.403421 93.7146342,159 92.8181259,159 L75.5150981,159 C74.4105286,159 73.5150981,158.104569 73.5150981,157 C73.5150981,156.816283 73.5404116,156.633441 73.5903245,156.456634 L106.337283,40.4566338 C106.580522,39.5950062 107.366754,39 108.262057,39 L128,39 Z" id="&lt;/" fill="#0A0A0A" fill-rule="nonzero"></path>
            </g>
        </g>
    </g>
</svg>