<?xml version="1.0" encoding="UTF-8"?>
<svg width="347px" height="475px" viewBox="0 0 347 475" version="1.1" xmlns="http://www.w3.org/2000/svg" xmlns:xlink="http://www.w3.org/1999/xlink">
    <!-- Generator: Sketch 55.2 (78181) - https://sketchapp.com -->
    <title>Group 5</title>
    <desc>Created with Sketch.</desc>
    <g id="Page-1" stroke="none" stroke-width="1" fill="none" fill-rule="evenodd">
        <g id="Group-5">
            <g id="Group-4">
                <path d="M30,6 C16.745166,6 6,16.745166 6,30 L6,444.337117 C6,457.591951 16.745166,468.337117 30,468.337117 L317,468.337117 C330.254834,468.337117 341,457.591951 341,444.337117 L341,118.377737 C341,116.005563 340.063458,113.729312 338.394044,112.044002 L235.991378,8.6662651 C234.301165,6.95995794 231.999063,6 229.597334,6 L30,6 Z" id="Rectangle" stroke="#000000" stroke-width="12" fill="#FFFFFF"></path>
                <path d="M224,-1.51020282 L349.205641,124 L260,124 C240.117749,124 224,107.882251 224,88 L224,-1.51020282 Z" id="Triangle" stroke="#000000" stroke-width="12" stroke-linejoin="round"></path>
                <g id="Group-2" transform="translate(35.000000, 237.000000)">
                    <path d="M174.383204,129.262524 C174.335437,129.278838 174.287787,129.296109 174.240277,129.314347 L151.234918,138.145314 L137.962728,124.476671 L146.878294,101.986778 C145.936154,100.016129 145.104398,97.992378 144.387113,95.9258727 L123.237162,86.3256897 L123.50777,66.6574117 L144.320792,57.4826737 C144.788387,56.1136433 145.30889,54.7513293 145.883268,53.3981804 C146.320043,52.3692018 146.782272,51.3589516 147.268884,50.3678719 L139.535467,29.3618334 L153.63046,15.3457975 L174.071467,23.433273 C176.496213,22.2331641 178.999074,21.202728 181.560635,20.3499857 L190.78125,0 L210.414476,0.0715680737 L219.218223,20.8119784 C220.168873,21.1575784 221.11555,21.5300951 222.057393,21.9298839 C223.420728,22.5085854 224.749993,23.1342666 226.044151,23.8043036 L247.38802,15.6111252 L260.955416,29.5837923 L252.156783,51.7787175 C252.965946,53.6280771 253.679824,55.5201297 254.295194,57.4467127 L276.168079,67.3750434 L275.901087,86.7805068 L253.440913,96.681338 C253.296085,96.7451809 253.156846,96.8166374 253.02348,96.8950419 C252.803553,97.4597168 252.574412,98.0229877 252.335988,98.5846794 C251.958978,99.4728598 251.563004,100.347086 251.148753,101.207075 C251.187304,101.380198 251.237802,101.55265 251.300673,101.723427 L259.917532,125.129131 L246.389676,138.581209 L223.418468,129.49266 C223.16093,129.390765 222.898894,129.317438 222.635942,129.271229 C221.332248,129.870852 220.007676,130.422206 218.665129,130.924092 C218.527629,131.121709 218.406192,131.334453 218.303421,131.561269 L207.888347,154.547437 L189.115797,154.479006 L179.355775,131.485747 C179.32342,131.409521 179.288967,131.334807 179.252512,131.261644 C178.21731,130.89074 177.186725,130.488004 176.161863,130.052976 C175.562359,129.798502 174.969444,129.534943 174.383204,129.262524 Z M188.678826,100.56486 C202.040693,106.236636 217.542655,99.8326194 223.303428,86.2610888 C229.064201,72.6895581 222.902297,57.0897759 209.54043,51.4179999 C196.178563,45.7462239 180.676601,52.1502404 174.915828,65.721771 C169.155055,79.2933017 175.316959,94.8930839 188.678826,100.56486 Z" id="Shape" fill="#000000"></path>
                    <path d="M64.6906481,110.576535 L1.21886733,83.6477714 C0.479916674,83.3342615 4.5391952e-15,82.6093275 0,81.8066218 L0,69.9620161 C7.8995512e-16,69.159962 0.479147725,68.4354843 1.21721745,68.1215673 L64.6889983,41.1256496 C65.70545,40.6933307 66.8799107,41.166864 67.3122295,42.1833158 C67.4175147,42.4308582 67.4717808,42.6970961 67.4717808,42.9660983 L67.4717808,57.4458309 C67.4717808,58.2576761 66.981018,58.9889757 66.2297309,59.2966447 L30.3393307,73.9945752 C29.3171545,74.4131795 28.8278628,75.5811628 29.246467,76.6033391 C29.4499815,77.1002943 29.8447955,77.4945291 30.342049,77.6973136 L66.2270126,92.3315294 C66.9797411,92.6384989 67.4717808,93.3705392 67.4717808,94.183454 L67.4717808,108.735386 C67.4717808,109.839955 66.5763503,110.735386 65.4717808,110.735386 C65.2033822,110.735386 64.9377292,110.681363 64.6906481,110.576535 Z M128,17.0985266 L94.7437797,135.638765 C94.5016157,136.501947 93.7146342,137.098527 92.8181259,137.098527 L75.5150981,137.098527 C74.4105286,137.098527 73.5150981,136.203096 73.5150981,135.098527 C73.5150981,134.914809 73.5404116,134.731968 73.5903245,134.55516 L106.337283,18.5551604 C106.580522,17.6935328 107.366754,17.0985266 108.262057,17.0985266 L128,17.0985266 Z" id="&lt;/" fill="#0A0A0A" fill-rule="nonzero"></path>
                </g>
            </g>
        </g>
    </g>
</svg>