<?xml version="1.0" encoding="UTF-8"?>
<svg width="105px" height="60px" viewBox="0 0 105 60" version="1.1" xmlns="http://www.w3.org/2000/svg" xmlns:xlink="http://www.w3.org/1999/xlink">
    <!-- Generator: Sketch 55.2 (78181) - https://sketchapp.com -->
    <title>Group</title>
    <desc>Created with Sketch.</desc>
    <g id="Page-1" stroke="none" stroke-width="1" fill="none" fill-rule="evenodd">
        <g id="Group" transform="translate(0.000000, -7.000000)">
            <path d="M68.0686568,65.0562062 L61.3908972,62.2866808 C61.3892513,62.2533852 61.3880196,62.2200321 61.3872051,62.1866288 L61.2205346,55.3519521 C61.1685229,53.2191053 59.4517423,51.5024738 57.318891,51.4506475 L50.560758,51.2864311 L47.7316061,44.4649025 L52.3858218,39.5871603 C53.8605435,38.0416127 53.8605435,35.6100264 52.3858218,34.0644788 L47.8004826,29.258921 L50.6532598,22.3629603 L57.318891,22.2009917 C59.4517423,22.1491653 61.1685229,20.4325338 61.2205346,18.2996871 L61.3830863,11.6339073 L68.269787,8.78496093 L73.1151594,13.3918089 C74.6593364,14.8599703 77.0833324,14.8599703 78.6275095,13.3918089 L83.5290162,8.73158999 L90.3578724,11.563781 L90.5221343,18.2996871 C90.5741459,20.4325338 92.2909266,22.1491653 94.4237778,22.2009917 L101.270767,22.3673672 C101.281829,22.367636 101.29288,22.3679494 101.303919,22.3683074 L104.095127,29.0983487 C104.08599,29.1081139 104.076801,29.1178416 104.067558,29.1275276 L99.356847,34.0644788 C97.8821253,35.6100264 97.8821253,38.0416127 99.356847,39.5871603 L104.067558,44.5241115 C104.111862,44.5705432 104.154829,44.6177628 104.19646,44.6657229 L101.462269,51.2750259 C101.398654,51.2796271 101.334803,51.2827159 101.270767,51.2842719 L94.4237778,51.4506475 C92.2909266,51.5024738 90.5741459,53.2191053 90.5221343,55.3519521 L90.3554638,62.1866288 C90.3535256,62.2661068 90.349282,62.3449867 90.3427984,62.4232061 L83.7716435,65.141615 C83.713274,65.092182 83.6561902,65.0409627 83.6004776,64.9879927 L78.6275095,60.2598302 C77.0833324,58.7916688 74.6593364,58.7916688 73.1151594,60.2598302 L68.1421913,64.9879927 C68.1178919,65.0110958 68.0933782,65.0338336 68.0686568,65.0562062 Z M75.5969374,46.6179204 C81.1197849,46.6179204 85.5969374,42.1407679 85.5969374,36.6179204 C85.5969374,31.0950729 81.1197849,26.6179204 75.5969374,26.6179204 C70.0740899,26.6179204 65.5969374,31.0950729 65.5969374,36.6179204 C65.5969374,42.1407679 70.0740899,46.6179204 75.5969374,46.6179204 Z" id="Combined-Shape" fill="#000000" transform="translate(75.969204, 36.943016) rotate(23.000000) translate(-75.969204, -36.943016) "></path>
            <path d="M23.0654577,48.455912 L1.23049672,39.3542287 C0.485347853,39.043621 -7.22920342e-17,38.3154827 0,37.5081885 L0,34.7214903 C3.45303072e-16,33.9148403 0.484583568,33.1871509 1.22886274,32.876132 L23.0638237,23.7517512 C24.0829869,23.3258639 25.2544319,23.806809 25.6803193,24.8259723 C25.7823976,25.0702492 25.8349609,25.3323621 25.8349609,25.5971095 L25.8349609,28.3324865 C25.8349609,29.1488152 25.3388358,29.8832131 24.5815107,30.1879281 L14.5039151,34.2427182 C13.479183,34.6550263 12.9827152,35.8199775 13.3950233,36.8447096 C13.5986598,37.3508188 14.000202,37.7517792 14.5066059,37.9546818 L24.5788199,41.99035 C25.3375673,42.29436 25.8349609,43.0294861 25.8349609,43.846872 L25.8349609,46.6098718 C25.8349609,47.7144413 24.9395304,48.6098718 23.8349609,48.6098718 C23.5708095,48.6098718 23.3092747,48.5575447 23.0654577,48.455912 Z M49.0112305,14 L36.5348903,57.693183 C36.289678,58.5519367 35.5048333,59.144043 34.6117561,59.144043 L30.5584109,59.144043 C29.4538414,59.144043 28.5584109,58.2486125 28.5584109,57.144043 C28.5584109,56.9572103 28.5845901,56.7712991 28.636185,56.5917318 L40.4580605,15.4476888 C40.7043511,14.5905159 41.4884319,14 42.3802864,14 L49.0112305,14 Z" id="&lt;/" fill="#0A0A0A" fill-rule="nonzero"></path>
        </g>
    </g>
</svg>